<svg xmlns="http://www.w3.org/2000/svg" viewBox="0 0 24 24"><defs><style>.cls-1{opacity:0.3;}</style></defs><g id="Abstract_Elements" data-name="Abstract Elements"><g id="abs001-049"><g id="abs021-030"><g id="abs030"><circle cx="4.5" cy="4.5" r="2.5"/><path class="cls-1" d="M14,4.5A2.5,2.5,0,1,1,11.5,2,2.5,2.5,0,0,1,14,4.5ZM18.5,2A2.5,2.5,0,1,0,21,4.5,2.5,2.5,0,0,0,18.5,2ZM4.5,9A2.5,2.5,0,1,0,7,11.5,2.5,2.5,0,0,0,4.5,9Zm7,0A2.5,2.5,0,1,0,14,11.5,2.5,2.5,0,0,0,11.5,9Zm7,0A2.5,2.5,0,1,0,21,11.5,2.5,2.5,0,0,0,18.5,9Zm-14,7A2.5,2.5,0,1,0,7,18.5,2.5,2.5,0,0,0,4.5,16Zm7,0A2.5,2.5,0,1,0,14,18.5,2.5,2.5,0,0,0,11.5,16Zm7,0A2.5,2.5,0,1,0,21,18.5,2.5,2.5,0,0,0,18.5,16Z"/></g></g></g></g></svg>