<svg xmlns="http://www.w3.org/2000/svg" viewBox="0 0 24 24"><defs><style>.cls-1{opacity:0.3;}</style></defs><g id="Abstract_Elements" data-name="Abstract Elements"><g id="abs001-049"><g id="abs031-040"><g id="abs038"><path d="M12,17.77V12l5,2.89h0a3.33,3.33,0,1,1-5,2.88ZM7,14.89,12,12,7,9.11H7a3.34,3.34,0,1,0,0,5.78Zm5-8.66V12l5-2.89h0a3.33,3.33,0,1,0-5-2.88Z"/><path class="cls-1" d="M7,9.11a3.33,3.33,0,1,1,5-2.88h0V12L7,9.11Zm10,5.78a3.33,3.33,0,1,0,0-5.78h0L12,12l5,2.89Zm-10,0a3.33,3.33,0,1,0,5,2.88h0V12L7,14.89Z"/></g></g></g></g></svg>