<svg xmlns="http://www.w3.org/2000/svg" viewBox="0 0 24 24"><defs><style>.cls-1{opacity:0.3;}</style></defs><g id="Abstract_Elements" data-name="Abstract Elements"><g id="abs001-049"><g id="abs031-040"><g id="abs039"><path class="cls-1" d="M14.2,14.7a4.94,4.94,0,0,1-.37,4.13,5,5,0,0,1-9.31-2.51,4.91,4.91,0,0,0,6.24-1.06A3.42,3.42,0,0,0,12,15.5,3.47,3.47,0,0,0,14.2,14.7ZM8.56,12.56A3.43,3.43,0,0,1,8.5,12,3.47,3.47,0,0,1,9.8,9.3,4.91,4.91,0,0,1,12,3.36a5,5,0,1,0-3.44,9.2ZM17,7a5,5,0,0,0-3.76,1.74,3.46,3.46,0,0,1,2.2,2.7,4.91,4.91,0,0,1,4,4.88A5,5,0,0,0,17,7Z"/><path d="M9.8,9.3a4.94,4.94,0,0,1,.37-4.13,5,5,0,0,1,9.31,2.51,4.91,4.91,0,0,0-6.24,1.06A3.42,3.42,0,0,0,12,8.5,3.47,3.47,0,0,0,9.8,9.3ZM8.56,12.56a4.91,4.91,0,0,1-4-4.88,5,5,0,1,0,6.24,7.58A3.46,3.46,0,0,1,8.56,12.56Zm10.27,1.27a5,5,0,0,0-3.39-2.39,3.43,3.43,0,0,1,.06.56,3.47,3.47,0,0,1-1.3,2.7A4.91,4.91,0,0,1,12,20.64a5,5,0,0,0,6.83-6.81Z"/></g></g></g></g></svg>