<svg xmlns="http://www.w3.org/2000/svg" viewBox="0 0 24 24"><defs><style>.cls-1{opacity:0.3;}</style></defs><g id="Abstract_Elements" data-name="Abstract Elements"><g id="abs001-049"><g id="abs041-049"><g id="abs047"><path class="cls-1" d="M12,2C1.88,8.48,0,19.4,12,22,24,19.4,22.12,8.48,12,2Z"/><path d="M12,22l8.31-8.31C20.44,17.45,17.9,20.73,12,22ZM19.28,9.72a14.89,14.89,0,0,0-2-3.05L12,12v5ZM9.14,4.14A20.21,20.21,0,0,0,6.67,6.67L12,12V7ZM12,2V7l2.86-2.86A23.93,23.93,0,0,0,12,2ZM3.69,13.69,12,22V17L4.72,9.72A10,10,0,0,0,3.69,13.69Z"/></g></g></g></g></svg>