<svg xmlns="http://www.w3.org/2000/svg" viewBox="0 0 24 24"><defs><style>.cls-1{opacity:0.3;}</style></defs><g id="Abstract_Elements" data-name="Abstract Elements"><g id="abs001-049"><g id="abs031-040"><g id="abs033"><path d="M19.07,4.93a9.94,9.94,0,0,1,2.24,3.42L17.66,12,8.35,2.69A10,10,0,0,1,19.07,4.93ZM2.69,15.65a10,10,0,0,0,13,5.66L6.34,12Z"/><path class="cls-1" d="M8.35,2.69,12,6.34,2.69,15.65a10,10,0,0,1,5.66-13Zm3.65,15,3.65,3.65a10,10,0,0,0,5.66-13Z"/><polygon points="2.78 15.74 2.6 15.57 2.78 15.74 2.78 15.74"/><polygon points="15.57 21.4 15.56 21.39 15.74 21.22 15.57 21.4"/><polygon points="21.39 8.44 21.22 8.26 21.4 8.43 21.39 8.44"/><polygon points="8.26 2.78 8.26 2.78 8.43 2.6 8.26 2.78"/></g></g></g></g></svg>