<svg xmlns="http://www.w3.org/2000/svg" viewBox="0 0 24 24"><defs><style>.cls-1{opacity:0.3;}</style></defs><g id="Abstract_Elements" data-name="Abstract Elements"><g id="abs001-049"><g id="abs031-040"><g id="abs031"><circle cx="4" cy="4" r="2"/><path class="cls-1" d="M14,12a2,2,0,1,1-2-2A2,2,0,0,1,14,12ZM4,10a2,2,0,1,0,2,2A2,2,0,0,0,4,10Zm16,0a2,2,0,1,0,2,2A2,2,0,0,0,20,10ZM12,2a2,2,0,1,0,2,2A2,2,0,0,0,12,2Zm8,0a2,2,0,1,0,2,2A2,2,0,0,0,20,2ZM12,18a2,2,0,1,0,2,2A2,2,0,0,0,12,18ZM4,18a2,2,0,1,0,2,2A2,2,0,0,0,4,18Zm16,0a2,2,0,1,0,2,2A2,2,0,0,0,20,18Z"/></g></g></g></g></svg>