<svg xmlns="http://www.w3.org/2000/svg" viewBox="0 0 24 24"><defs><style>.cls-1{opacity:0.3;}</style></defs><g id="Abstract_Elements" data-name="Abstract Elements"><g id="abs001-049"><g id="abs011-020"><g id="abs017"><path class="cls-1" d="M2.08,12.1l.79-1.77a1,1,0,0,1,1.28-.49l.89.39a7.26,7.26,0,0,0,6.18,0,11.08,11.08,0,0,1,9.32,0l.88.39a1,1,0,0,1,.5,1.28l-.79,1.77a1,1,0,0,1-1.28.49L19,13.77a7.26,7.26,0,0,0-6.18,0,11.08,11.08,0,0,1-9.32,0l-.88-.39A1,1,0,0,1,2.08,12.1Zm.5,8.17.88.39a11.12,11.12,0,0,0,9.32,0,7.26,7.26,0,0,1,6.18,0l.89.4a1,1,0,0,0,1.28-.49l.79-1.77a1,1,0,0,0-.5-1.28l-.88-.4a11.08,11.08,0,0,0-9.32,0,7.26,7.26,0,0,1-6.18,0l-.89-.39a1,1,0,0,0-1.28.49L2.08,19A1,1,0,0,0,2.58,20.27Z"/><path d="M2.08,5.2l.79-1.77a1,1,0,0,1,1.28-.49l.89.4a7.26,7.26,0,0,0,6.18,0,11.12,11.12,0,0,1,9.32,0l.88.39A1,1,0,0,1,21.92,5l-.79,1.77a1,1,0,0,1-1.28.49L19,6.88a7.26,7.26,0,0,0-6.18,0,11.08,11.08,0,0,1-9.32,0l-.88-.4A1,1,0,0,1,2.08,5.2Z"/></g></g></g></g></svg>