<svg xmlns="http://www.w3.org/2000/svg" viewBox="0 0 24 24"><defs><style>.cls-1{opacity:0.3;}</style></defs><g id="Abstract_Elements" data-name="Abstract Elements"><g id="abs001-049"><g id="abs011-020"><g id="abs014"><path class="cls-1" d="M12,5.2l5.89,3.4v6.8L12,18.8,6.11,15.4V8.6L12,5.2M12,2a1.78,1.78,0,0,0-.84.22L4,6.39a1.67,1.67,0,0,0-.84,1.45v8.32A1.67,1.67,0,0,0,4,17.61l7.21,4.17a1.71,1.71,0,0,0,1.68,0l7.21-4.17a1.67,1.67,0,0,0,.84-1.45V7.84a1.67,1.67,0,0,0-.84-1.45L12.84,2.22A1.78,1.78,0,0,0,12,2Z"/><polygon points="12 8.67 9.12 10.33 9.11 13.67 12 15.33 14.88 13.67 14.89 10.33 12 8.67 12 8.67"/></g></g></g></g></svg>