<svg xmlns="http://www.w3.org/2000/svg" viewBox="0 0 24 24"><defs><style>.cls-1{opacity:0.3;}</style></defs><g id="Abstract_Elements" data-name="Abstract Elements"><g id="abs001-049"><g id="abs021-030"><g id="abs027"><path class="cls-1" d="M21.25,18.52,13,21.8a2.72,2.72,0,0,1-2.06,0L2.75,18.52a1.2,1.2,0,0,1,0-2.23L4,15.78l6.19,2.48a4.83,4.83,0,0,0,3.56,0L20,15.78l1.28.51A1.2,1.2,0,0,1,21.25,18.52ZM13,16.4l8.22-3.29a1.2,1.2,0,0,0,0-2.22L13,7.6A2.82,2.82,0,0,0,11,7.6L2.75,10.89a1.2,1.2,0,0,0,0,2.22L11,16.4A2.82,2.82,0,0,0,13,16.4Z"/><path d="M11,11,2.75,7.71a1.2,1.2,0,0,1,0-2.23L11,2.2A2.72,2.72,0,0,1,13,2.2l8.22,3.28a1.2,1.2,0,0,1,0,2.23L13,11A2.82,2.82,0,0,1,11,11Z"/></g></g></g></g></svg>