<svg xmlns="http://www.w3.org/2000/svg" viewBox="0 0 24 24"><defs><style>.cls-1{opacity:0.3;}</style></defs><g id="Abstract_Elements" data-name="Abstract Elements"><g id="abs001-049"><g id="abs011-020"><g id="abs013"><path class="cls-1" d="M13,22H11a1,1,0,0,1-1-1V18a1,1,0,0,1,1-1h2a1,1,0,0,1,1,1v3A1,1,0,0,1,13,22Zm5.2-11.27,2.59-1.5a1,1,0,0,0,.37-1.36l-1-1.74a1,1,0,0,0-1.37-.36L16.2,7.27a1,1,0,0,0-.37,1.36l1,1.74A1,1,0,0,0,18.2,10.73ZM7.8,7.27,5.21,5.77a1,1,0,0,0-1.37.36l-1,1.74a1,1,0,0,0,.37,1.36l2.59,1.5a1,1,0,0,0,1.37-.36l1-1.74A1,1,0,0,0,7.8,7.27Z"/><path d="M13,7H11a1,1,0,0,1-1-1V3a1,1,0,0,1,1-1h2a1,1,0,0,1,1,1V6A1,1,0,0,1,13,7ZM5.21,18.23l2.59-1.5a1,1,0,0,0,.37-1.36l-1-1.74a1,1,0,0,0-1.37-.36l-2.59,1.5a1,1,0,0,0-.37,1.36l1,1.74A1,1,0,0,0,5.21,18.23Zm15.58-3.46-2.59-1.5a1,1,0,0,0-1.37.36l-1,1.74a1,1,0,0,0,.37,1.36l2.59,1.5a1,1,0,0,0,1.37-.36l1-1.74A1,1,0,0,0,20.79,14.77Z"/></g></g></g></g></svg>