<svg xmlns="http://www.w3.org/2000/svg" viewBox="0 0 24 24"><defs><style>.cls-1{opacity:0.3;}</style></defs><g id="Abstract_Elements" data-name="Abstract Elements"><g id="abs001-049"><g id="abs041-049"><g id="abs048"><circle class="cls-1" cx="12" cy="12" r="10"/><path d="M8.73,6a14.56,14.56,0,0,0-1.92-.89,22.17,22.17,0,0,1,3.28-2.92A10.06,10.06,0,0,1,12,2a10.29,10.29,0,0,1,1.94.19A20.2,20.2,0,0,0,8.73,6ZM12,8.4a16,16,0,0,1,6.71-3.8,9.92,9.92,0,0,0-2-1.43,17.86,17.86,0,0,0-6.23,3.94A17.37,17.37,0,0,1,12,8.4ZM7,20q0,.32,0,.63A9.64,9.64,0,0,1,4.86,19a4,4,0,0,0-1.72-2.36,9.84,9.84,0,0,1-.91-2.5A6,6,0,0,1,7,20ZM10.63,9.86A13.88,13.88,0,0,0,3.8,6.29a10.17,10.17,0,0,0-1,1.86A11.89,11.89,0,0,1,9.46,11.5,14.75,14.75,0,0,1,10.63,9.86Zm-8.44.22A10.08,10.08,0,0,0,2,12v.06a8,8,0,0,1,5.64,3.48,16.28,16.28,0,0,1,.82-2.18A9.93,9.93,0,0,0,2.19,10.08ZM11,20A12,12,0,0,1,21.23,8.15a10.26,10.26,0,0,0-1-1.87A14,14,0,0,0,9,20c0,.53,0,1.05.09,1.57a10.32,10.32,0,0,0,2.08.39A12.64,12.64,0,0,1,11,20Zm8.14-1a4,4,0,0,1,1.72-2.36,9.84,9.84,0,0,0,.91-2.5A6,6,0,0,0,17,20q0,.32,0,.63A9.64,9.64,0,0,0,19.14,19ZM15,20a8,8,0,0,1,7-7.93V12a10.08,10.08,0,0,0-.19-1.92,10,10,0,0,0-8.62,11.84,9.68,9.68,0,0,0,2-.43A8.1,8.1,0,0,1,15,20Z"/></g></g></g></g></svg>