<svg xmlns="http://www.w3.org/2000/svg" viewBox="0 0 24 24"><defs><style>.cls-1{opacity:0.3;}</style></defs><g id="Abstract_Elements" data-name="Abstract Elements"><g id="abs001-049"><g id="abs041-049"><g id="abs042"><path d="M18.23,21.77h0c-1.46-1.2-8.93-1.34-11.71-.39A1.54,1.54,0,0,1,5,21L2.23,18.23C4.44,16,11,15.31,16.06,16.06,16.43,18.55,17.15,20.69,18.23,21.77ZM19,3a1.54,1.54,0,0,0-1.57-.4c-2.78,1-10.25.81-11.71-.39h0C7.05,3.51,7.68,5.76,8,7.94a27.56,27.56,0,0,0,4,.29c4.06,0,8.13-.82,9.77-2.46Z"/><path class="cls-1" d="M21.39,17.46A1.54,1.54,0,0,1,21,19l-2.76,2.74C16,19.56,15.31,13,16.06,7.94c2.49-.37,4.63-1.09,5.71-2.17v0C20.58,7.21,20.44,14.68,21.39,17.46ZM8.24,11.89c0-2.69-.34-7.52-2.47-9.66L3,5a1.54,1.54,0,0,0-.39,1.59,18.88,18.88,0,0,1,.65,5.32c0,3.8-.7,5.95-1,6.34v0C3.32,17.14,5.47,16.42,8,16.05A27.8,27.8,0,0,0,8.24,11.89Z"/></g></g></g></g></svg>