<svg xmlns="http://www.w3.org/2000/svg" viewBox="0 0 24 24"><defs><style>.cls-1{opacity:0.3;}</style></defs><g id="Abstract_Elements" data-name="Abstract Elements"><g id="abs001-049"><g id="abs021-030"><g id="abs025"><path d="M16.91,4.14V8.22L12,11.05V5.38l3.53-2A.92.92,0,0,1,16.91,4.14ZM2.46,13.74l3.53,2L10.91,13,6,10.11l-3.53,2A.92.92,0,0,0,2.46,13.74ZM18,19.86V15.78L13.09,13v5.67l3.54,2A.92.92,0,0,0,18,19.86Z"/><path class="cls-1" d="M8.47,3.34l3.53,2v5.67L7.09,8.22V4.14A.92.92,0,0,1,8.47,3.34ZM7.37,20.66l3.54-2V13L6,15.78v4.08A.92.92,0,0,0,7.37,20.66Zm14.17-8.51-3.53-2L13.09,13,18,15.78l3.53-2A.92.92,0,0,0,21.54,12.15Z"/></g></g></g></g></svg>