<svg xmlns="http://www.w3.org/2000/svg" viewBox="0 0 24 24"><defs><style>.cls-1{opacity:0.3;}</style></defs><g id="Abstract_Elements" data-name="Abstract Elements"><g id="abs001-049"><g id="abs041-049"><g id="abs041"><path d="M15.89,15a3.93,3.93,0,0,0,.11-.92,3.86,3.86,0,0,0-.54-2,4,4,0,0,0-3.46-2,6.2,6.2,0,0,0-.62.06c-4,.51-6.73,4.05-8.78,7.49L10.88,3.24a1.29,1.29,0,0,1,2.24,0l.3.53C15.35,7.2,17,11.25,15.89,15Z"/><path class="cls-1" d="M20.7,20.26c-3.91,0-8.33-.35-11.14-3.05a3.92,3.92,0,0,0,2.44.84A4,4,0,0,0,15.5,16a3.94,3.94,0,0,0,.35-.88.93.93,0,0,1,0-.13c1.15-3.72-.54-7.77-2.47-11.2l8.4,14.55A1.29,1.29,0,0,1,20.7,20.26Zm-12-1.94a7.86,7.86,0,0,1-.91-2.65c-.41-2.45.9-5.18,3.57-5.56-4,.51-6.73,4.05-8.78,7.49l-.42.72A1.29,1.29,0,0,0,3.3,20.26h7.06A7.35,7.35,0,0,1,8.72,18.32Z"/></g></g></g></g></svg>