<svg xmlns="http://www.w3.org/2000/svg" viewBox="0 0 24 24"><defs><style>.cls-1{opacity:0.3;}</style></defs><g id="Abstract_Elements" data-name="Abstract Elements"><g id="abs001-049"><g id="abs041-049"><g id="abs043"><path class="cls-1" d="M22,8H8l4-4h7a1.69,1.69,0,0,1,1.52.94ZM3.53,19.06A1.69,1.69,0,0,0,5.05,20h7l4-4H2Zm15.53,1.41A1.69,1.69,0,0,0,20,19V12L16,8V22ZM4.94,3.53A1.69,1.69,0,0,0,4,5.05v7l4,4V2Z"/><path d="M22,8l-2,4L16,8ZM8,16,4,12,2,16Zm8,0-4,4,4,2ZM8,8l4-4L8,2Z"/></g></g></g></g></svg>