<svg xmlns="http://www.w3.org/2000/svg" viewBox="0 0 24 24"><defs><style>.cls-1{opacity:0.3;}</style></defs><g id="Abstract_Elements" data-name="Abstract Elements"><g id="abs001-049"><g id="abs041-049"><g id="abs045"><polygon points="2 12 10 14.4 22 12 14 9.6 2 12"/><path class="cls-1" d="M20.9,8.22,2,12V7.12A1.37,1.37,0,0,1,3.1,5.78l17.52-3.5A1.14,1.14,0,0,1,22,3.4V6.88A1.37,1.37,0,0,1,20.9,8.22ZM22,16.88V12L3.1,15.78A1.37,1.37,0,0,0,2,17.12V20.6a1.14,1.14,0,0,0,1.38,1.12l17.52-3.5A1.37,1.37,0,0,0,22,16.88Z"/></g></g></g></g></svg>