<svg xmlns="http://www.w3.org/2000/svg" viewBox="0 0 24 24"><defs><style>.cls-1{opacity:0.3;}</style></defs><g id="Arrows"><g id="arr011-020"><g id="arr019"><path class="cls-1" d="M12,10.59l2.83-2.83a1,1,0,1,1,1.41,1.41L13.41,12ZM10.59,12,7.76,14.83a1,1,0,0,0,0,1.41,1,1,0,0,0,1.41,0L12,13.41Z"/><path d="M21,22H3a1,1,0,0,1-1-1V3A1,1,0,0,1,3,2H21a1,1,0,0,1,1,1V21A1,1,0,0,1,21,22ZM13.41,12l2.83-2.83a1,1,0,1,0-1.41-1.41L12,10.59,9.17,7.76A1,1,0,0,0,7.76,9.17L10.59,12,7.76,14.83a1,1,0,0,0,0,1.41,1,1,0,0,0,1.41,0L12,13.41l2.83,2.83a1,1,0,0,0,1.41,0,1,1,0,0,0,0-1.41Z"/></g></g></g></svg>