<svg xmlns="http://www.w3.org/2000/svg" viewBox="0 0 24 24"><defs><style>.cls-1{opacity:0.3;}</style></defs><g id="Arrows"><g id="arr011-020"><g id="arr015"><path class="cls-1" d="M12,10.59l2.83-2.83a1,1,0,1,1,1.41,1.41L13.41,12ZM10.59,12,7.76,14.83a1,1,0,0,0,0,1.41,1,1,0,0,0,1.41,0L12,13.41Z"/><path d="M22,12A10,10,0,1,1,12,2,10,10,0,0,1,22,12Zm-8.59,0,2.83-2.83a1,1,0,1,0-1.41-1.41L12,10.59,9.17,7.76A1,1,0,0,0,7.76,9.17L10.59,12,7.76,14.83a1,1,0,0,0,0,1.41,1,1,0,0,0,1.41,0L12,13.41l2.83,2.83a1,1,0,0,0,1.41,0,1,1,0,0,0,0-1.41Z"/></g></g></g></svg>