<svg xmlns="http://www.w3.org/2000/svg" viewBox="0 0 24 24"><defs><style>.cls-1{opacity:0.3;}</style></defs><g id="Files_and_folders" data-name="Files and folders"><g id="fil011-020"><g id="fil015"><path class="cls-1" d="M10,4H21a1,1,0,0,1,1,1V7a0,0,0,0,1,0,0H10a0,0,0,0,1,0,0V4A0,0,0,0,1,10,4Z"/><path class="cls-1" d="M12,14.41,9.88,16.54a1,1,0,0,1-.71.29,1,1,0,0,1-.71-.29,1,1,0,0,1,0-1.42L10.59,13ZM13.41,13l2.13-2.12a1,1,0,0,0-1.42-1.42L12,11.59Z"/><path d="M10.43,3.65,12,6h9a1,1,0,0,1,1,1V19a1,1,0,0,1-1,1H3a1,1,0,0,1-1-1V4A1,1,0,0,1,3,3H9.22A1.44,1.44,0,0,1,10.43,3.65Zm3,9.35,2.13-2.12a1,1,0,0,0-1.42-1.42L12,11.59,9.88,9.46a1,1,0,0,0-1.42,1.42L10.59,13,8.46,15.12a1,1,0,0,0,0,1.42,1,1,0,0,0,.71.29,1,1,0,0,0,.71-.29L12,14.41l2.12,2.13a1,1,0,0,0,.71.29,1,1,0,0,0,.71-.29,1,1,0,0,0,0-1.42Z"/></g></g></g></svg>