<svg xmlns="http://www.w3.org/2000/svg" viewBox="0 0 24 24"><defs><style>.cls-1{opacity:0.3;}</style></defs><g id="Files_and_folders" data-name="Files and folders"><g id="fil021-023"><g id="fil023"><path class="cls-1" d="M5,15A3,3,0,0,1,5,9h.1A5.58,5.58,0,0,1,5,8a5,5,0,0,1,9.32-2.48A3,3,0,0,1,16,5a3,3,0,0,1,3,3,2.89,2.89,0,0,1-.19,1L19,9a3,3,0,0,1,0,6Zm0-2.41h8L9.71,9.29a1,1,0,0,0-1.42,0Z"/><path d="M17,17.41V12a1,1,0,0,0-2,0v5.41Z"/><path class="cls-1" d="M12,17.41h8l-3.29,3.3a1,1,0,0,1-1.42,0Z"/><path d="M8,12.59V18a1,1,0,0,0,2,0V12.59Z"/></g></g></g></svg>