<svg xmlns="http://www.w3.org/2000/svg" viewBox="0 0 24 24"><defs><style>.cls-1{opacity:0.3;}</style></defs><g id="Files_and_folders" data-name="Files and folders"><g id="fil011-020"><g id="fil018"><path class="cls-1" d="M10,4H21a1,1,0,0,1,1,1V7a0,0,0,0,1,0,0H10a0,0,0,0,1,0,0V4A0,0,0,0,1,10,4Z"/><path d="M10.43,3.65,12,6h9a1,1,0,0,1,1,1V19a1,1,0,0,1-1,1H3a1,1,0,0,1-1-1V4A1,1,0,0,1,3,3H9.22A1.44,1.44,0,0,1,10.43,3.65ZM16,11.59l-3.29-3.3a1,1,0,0,0-1.42,0L8,11.59h3V17a1,1,0,0,0,2,0V11.59Z"/><path class="cls-1" d="M11,11.59V17a1,1,0,0,0,2,0V11.59Z"/></g></g></g></svg>