<svg xmlns="http://www.w3.org/2000/svg" viewBox="0 0 24 24"><defs><style>.cls-1{opacity:0.3;}</style></defs><g id="Files_and_folders" data-name="Files and folders"><g id="fil011-020"><g id="fil011"><g class="cls-1"><path d="M19,22H5a1,1,0,0,1-1-1V3A1,1,0,0,1,5,2h9l6,6V21A1,1,0,0,1,19,22Zm-7-4.2h0a3.48,3.48,0,0,1-2.47-1,3.44,3.44,0,0,1-1-2.47,3.53,3.53,0,0,1,.3-1.41l1.2,1.2v-3a1,1,0,0,0-1-1H6l1.33,1.33A5.49,5.49,0,0,0,12,19.8h0a1,1,0,1,0,0-2Zm4.66-.64A5.49,5.49,0,0,0,12,8.8h0a1,1,0,1,0,0,2,3.5,3.5,0,0,1,3.19,4.89L14,14.49v3a1,1,0,0,0,1,1h3Z"/></g><path d="M15,8h5L14,2V7A1,1,0,0,0,15,8Z"/></g></g></g></svg>