<svg xmlns="http://www.w3.org/2000/svg" viewBox="0 0 24 24"><defs><style>.cls-1{opacity:0.3;}</style></defs><g id="Files_and_folders" data-name="Files and folders"><g id="fil001-010"><g id="fil002"><path class="cls-1" d="M21,5a1,1,0,0,0-1,1v4H16V6a1,1,0,0,0-2,0v4H10V6A1,1,0,0,0,8,6v4H4V6A1,1,0,0,0,2,6V21a1,1,0,0,0,1,1H21a1,1,0,0,0,1-1V6A1,1,0,0,0,21,5Zm-1,7v3H16V12Zm-6,0v3H10V12Zm0,5v3H10V17ZM8,12v3H4V12ZM4,17H8v3H4Zm12,3V17h4v3Z"/><rect x="2" y="2" width="20" height="5" rx="1"/></g></g></g></svg>