<svg xmlns="http://www.w3.org/2000/svg" viewBox="0 0 24 24"><defs><style>.cls-1{opacity:0.3;}</style></defs><g id="Files_and_folders" data-name="Files and folders"><g id="fil011-020"><g id="fil013"><path class="cls-1" d="M10,4H21a1,1,0,0,1,1,1V7a0,0,0,0,1,0,0H10a0,0,0,0,1,0,0V4A0,0,0,0,1,10,4Z"/><path d="M10.43,3.65,12,6h9a1,1,0,0,1,1,1V19a1,1,0,0,1-1,1H3a1,1,0,0,1-1-1V4A1,1,0,0,1,3,3H9.22A1.44,1.44,0,0,1,10.43,3.65ZM16,12H13V9a1,1,0,0,0-2,0v3H8a1,1,0,0,0,0,2h3v3a1,1,0,0,0,2,0V14h3a1,1,0,0,0,0-2Z"/><path class="cls-1" d="M11,14H8a1,1,0,0,1,0-2h3Zm5-2H13v2h3a1,1,0,0,0,0-2Z"/></g></g></g></svg>