<svg xmlns="http://www.w3.org/2000/svg" viewBox="0 0 24 24"><defs><style>.cls-1{opacity:0.3;}</style></defs><g id="Files_and_folders" data-name="Files and folders"><g id="fil011-020"><g id="fil019"><path class="cls-1" d="M10,4H21a1,1,0,0,1,1,1V7a0,0,0,0,1,0,0H10a0,0,0,0,1,0,0V4A0,0,0,0,1,10,4Z"/><path d="M10.43,3.65,12,6h9a1,1,0,0,1,1,1V19a1,1,0,0,1-1,1H3a1,1,0,0,1-1-1V4A1,1,0,0,1,3,3H9.22A1.44,1.44,0,0,1,10.43,3.65ZM12,16.8h0a3.48,3.48,0,0,1-2.47-1,3.44,3.44,0,0,1-1-2.47,3.3,3.3,0,0,1,.31-1.4L10,13.09v-3a1,1,0,0,0-1-1H6l1.33,1.33A5.49,5.49,0,0,0,12,18.8h0a1,1,0,1,0,0-2Zm4.64-.65a5.37,5.37,0,0,0,.84-2.85A5.5,5.5,0,0,0,12,7.8h0a1,1,0,1,0,0,2,3.5,3.5,0,0,1,3.19,4.89L14,13.49v3a1,1,0,0,0,1,1h3Z"/><path class="cls-1" d="M12,16.8h0a3.48,3.48,0,0,1-2.47-1,3.44,3.44,0,0,1-1-2.47,3.3,3.3,0,0,1,.31-1.4L7.33,10.42A5.49,5.49,0,0,0,12,18.8h0a1,1,0,1,0,0-2Z"/><path class="cls-1" d="M15.5,13.3a3.43,3.43,0,0,1-.29,1.39l1.45,1.46a5.37,5.37,0,0,0,.84-2.85A5.5,5.5,0,0,0,12,7.8h0a1,1,0,1,0,0,2,3.5,3.5,0,0,1,3.48,3.5Z"/></g></g></g></svg>