<svg xmlns="http://www.w3.org/2000/svg" viewBox="0 0 24 24"><defs><style>.cls-1{opacity:0.3;}</style></defs><g id="Files_and_folders" data-name="Files and folders"><g id="fil001-010"><g id="fil007"><g class="cls-1"><path d="M19,22H5a1,1,0,0,1-1-1V3A1,1,0,0,1,5,2h9l6,6V21A1,1,0,0,1,19,22Zm-5.59-8,2.13-2.12a1,1,0,0,0-1.42-1.42L12,12.59,9.88,10.46a1,1,0,0,0-1.42,1.42L10.59,14,8.46,16.12a1,1,0,0,0,0,1.42,1,1,0,0,0,.71.29,1,1,0,0,0,.71-.29L12,15.41l2.12,2.13a1,1,0,0,0,.71.29,1,1,0,0,0,.71-.29,1,1,0,0,0,0-1.42Z"/></g><path d="M15,8h5L14,2V7A1,1,0,0,0,15,8Z"/></g></g></g></svg>