<svg xmlns="http://www.w3.org/2000/svg" viewBox="0 0 24 24"><defs><style>.cls-1{opacity:0.3;}</style></defs><g id="Files_and_folders" data-name="Files and folders"><g id="fil001-010"><g id="fil001"><rect x="4" y="3" width="13" height="3" rx="1"/><path class="cls-1" d="M19,11H5a1,1,0,0,1-1-1H4A1,1,0,0,1,5,9H19a1,1,0,0,1,1,1h0A1,1,0,0,1,19,11Zm1,4h0a1,1,0,0,0-1-1H5a1,1,0,0,0-1,1H4a1,1,0,0,0,1,1H19A1,1,0,0,0,20,15Zm-4,5h0a1,1,0,0,0-1-1H5a1,1,0,0,0-1,1H4a1,1,0,0,0,1,1H15A1,1,0,0,0,16,20Z"/></g></g></g></svg>