<svg id="General" xmlns="http://www.w3.org/2000/svg" viewBox="0 0 24 24"><defs><style>.cls-1{opacity:0.3;}</style></defs><g id="gen011-020"><g id="gen011"><path class="cls-1" d="M18,2H6A4,4,0,0,0,2,6V18a4,4,0,0,0,4,4H18a4,4,0,0,0,4-4V6A4,4,0,0,0,18,2ZM17,12a4.94,4.94,0,0,1-.42,2H20v4a2,2,0,0,1-2,2H14V16.58a5,5,0,0,1-4,0V20H6a2,2,0,0,1-2-2V14H7.42a5,5,0,0,1,0-4H4V6A2,2,0,0,1,6,4h4V7.42a5,5,0,0,1,4,0V4h4a2,2,0,0,1,2,2v4H16.58A4.94,4.94,0,0,1,17,12Z"/><path d="M14,3.23A9,9,0,0,1,20.77,10H16.58A5.07,5.07,0,0,0,14,7.42ZM7.42,10A5.07,5.07,0,0,1,10,7.42V3.23A9,9,0,0,0,3.23,10Zm9.16,4A5.07,5.07,0,0,1,14,16.58v4.19A9,9,0,0,0,20.77,14ZM10,16.58A5.07,5.07,0,0,1,7.42,14H3.23A9,9,0,0,0,10,20.77Z"/></g></g></svg>