<svg id="General" xmlns="http://www.w3.org/2000/svg" viewBox="0 0 24 24"><defs><style>.cls-1{opacity:0.3;}</style></defs><g id="gen011-020"><g id="gen013"><path class="cls-1" d="M21,13a1,1,0,0,1,0-2H22A10,10,0,0,0,13,2.05V3a1,1,0,0,1-2,0v-1a10,10,0,0,0-8.95,9H3a1,1,0,0,1,0,2h-1a10,10,0,0,0,9,9V21a1,1,0,0,1,2,0V22A10,10,0,0,0,22,13Z"/><path d="M17,11H13.72a1.91,1.91,0,0,0-.72-.72V6a1,1,0,0,0-2,0v4.28a1.91,1.91,0,0,0-.72.72H10a1,1,0,0,0,0,2h.28a1.91,1.91,0,0,0,.72.72V14a1,1,0,0,0,2,0v-.28a1.91,1.91,0,0,0,.72-.72H17a1,1,0,0,0,0-2Z"/></g></g></svg>