<svg id="General" xmlns="http://www.w3.org/2000/svg" viewBox="0 0 24 24"><defs><style>.cls-1{opacity:0.3;}</style></defs><g id="gen001-010"><g id="gen002"><g class="cls-1"><path d="M4.05,15.2C8.34,7.77,13.58,3.26,20.93,2A.92.92,0,0,1,22,3.07C20.74,10.42,16.23,15.66,8.8,20Zm-.23,2.14L2.63,20.45a.71.71,0,0,0,.92.92l3.11-1.19ZM16.5,6A1.5,1.5,0,1,0,18,7.5,1.5,1.5,0,0,0,16.5,6Z"/></g><path d="M4.05,15.2l-1.8-1.81a.84.84,0,0,1,.18-1.33L9.15,8.29A34.68,34.68,0,0,0,4.05,15.2ZM8.8,20l1.81,1.8a.84.84,0,0,0,1.33-.18l3.77-6.72A34.68,34.68,0,0,1,8.8,20ZM7,18.19l5.55-5.55a.87.87,0,0,0-1.23-1.22L5.81,17Z"/></g></g></svg>