<svg id="General" xmlns="http://www.w3.org/2000/svg" viewBox="0 0 24 24"><defs><style>.cls-1{opacity:0.3;}</style></defs><g id="gen011-020"><g id="gen020"><polygon points="14 18 14 16 10 16 10 18 9 20 15 20 14 18"/><path class="cls-1" d="M20,4H17V3a1,1,0,0,0-1-1H8A1,1,0,0,0,7,3V4H4A1,1,0,0,0,3,5V9a4,4,0,0,0,4,4H7l3,3h4l3-3h0a4,4,0,0,0,4-4V5A1,1,0,0,0,20,4ZM5,9V6H7v5A2,2,0,0,1,5,9ZM19,9a2,2,0,0,1-2,2V6h2ZM17,21v1H7V21a1,1,0,0,1,1-1h8A1,1,0,0,1,17,21ZM10,9A1,1,0,0,1,9,8V5a1,1,0,0,1,2,0V8A1,1,0,0,1,10,9Zm0,4a1,1,0,0,1-1-1V11a1,1,0,0,1,2,0v1A1,1,0,0,1,10,13Z"/></g></g></svg>