<svg id="General" xmlns="http://www.w3.org/2000/svg" viewBox="0 0 24 24"><defs><style>.cls-1{opacity:0.3;}</style></defs><g id="gen011-020"><g id="gen015"><path class="cls-1" d="M22,12A10,10,0,1,1,12,2,10,10,0,0,1,22,12ZM12,10a2,2,0,1,0,2,2A2,2,0,0,0,12,10ZM6.4,9.85A6,6,0,0,1,10.11,6.3,1,1,0,0,0,10.75,5,1,1,0,0,0,9.48,4.4,8,8,0,0,0,4.53,9.13a1,1,0,0,0,.57,1.3,1.13,1.13,0,0,0,.36.06A1,1,0,0,0,6.4,9.85Zm8.36,9.66a8,8,0,0,0,4.78-4.82A1,1,0,1,0,17.65,14a6,6,0,0,1-3.58,3.61,1,1,0,0,0,.35,1.94A1,1,0,0,0,14.76,19.51Z"/><path d="M16,12a4,4,0,1,1-4-4A4,4,0,0,1,16,12Zm-4-2a2,2,0,1,0,2,2A2,2,0,0,0,12,10Z"/></g></g></svg>