<svg id="General" xmlns="http://www.w3.org/2000/svg" viewBox="0 0 24 24"><defs><style>.cls-1{opacity:0.3;}</style></defs><g id="gen011-020"><g id="gen014"><rect class="cls-1" x="2" y="4" width="20" height="18" rx="1"/><path d="M6,6A1,1,0,0,1,5,5V3A1,1,0,0,1,7,3V5A1,1,0,0,1,6,6Zm5-1V3A1,1,0,0,0,9,3V5a1,1,0,0,0,2,0Zm4,0V3a1,1,0,0,0-2,0V5a1,1,0,0,0,2,0Zm4,0V3a1,1,0,0,0-2,0V5a1,1,0,0,0,2,0Z"/><path d="M8.84,13.09a1.43,1.43,0,0,0,.93-.31,1.13,1.13,0,0,0,.38-.91,1.09,1.09,0,0,0-.31-.78A1.1,1.1,0,0,0,9,10.77a1.42,1.42,0,0,0-.59.1.85.85,0,0,0-.37.26,2,2,0,0,0-.25.42c-.08.18-.16.34-.22.49a.39.39,0,0,1-.21.19A.83.83,0,0,1,7,12.3a.6.6,0,0,1-.43-.19.65.65,0,0,1-.19-.5A1.39,1.39,0,0,1,6.57,11a2.39,2.39,0,0,1,.54-.64A3,3,0,0,1,8,9.83a3.65,3.65,0,0,1,1.18-.18,3.39,3.39,0,0,1,1,.15,2.65,2.65,0,0,1,.81.45,1.88,1.88,0,0,1,.52.68,2,2,0,0,1,.18.83,1.9,1.9,0,0,1-.26,1,3.39,3.39,0,0,1-.73.82,3.12,3.12,0,0,1,.78.56,2.33,2.33,0,0,1,.47.7,2.27,2.27,0,0,1,.16.83,2.65,2.65,0,0,1-.22,1,2.59,2.59,0,0,1-.63.89,3,3,0,0,1-1,.61A3.62,3.62,0,0,1,9,18.43a3,3,0,0,1-1.26-.26,2.68,2.68,0,0,1-.92-.63,2.74,2.74,0,0,1-.54-.78,1.72,1.72,0,0,1-.18-.67.73.73,0,0,1,.21-.54.77.77,0,0,1,.55-.21.55.55,0,0,1,.32.1.44.44,0,0,1,.2.23,4,4,0,0,0,.65,1.21,1.24,1.24,0,0,0,1,.39,1.49,1.49,0,0,0,1.26-.71,1.45,1.45,0,0,0,.22-.81,1.5,1.5,0,0,0-.38-1.08,1.36,1.36,0,0,0-1-.39l-.36,0-.32,0a.72.72,0,0,1-.5-.16.61.61,0,0,1-.17-.45A.54.54,0,0,1,8,13.27a1,1,0,0,1,.63-.18Zm6.51,4.39V12.15a4.82,4.82,0,0,1-2,1.14.58.58,0,0,1-.43-.2.61.61,0,0,1-.19-.45.52.52,0,0,1,.18-.44,3.93,3.93,0,0,1,.67-.37,4.68,4.68,0,0,0,1.13-.7,4.87,4.87,0,0,0,.75-.82,6.26,6.26,0,0,1,.43-.57.51.51,0,0,1,.37-.1.59.59,0,0,1,.5.24,1,1,0,0,1,.19.66v6.71c0,.78-.27,1.18-.8,1.18a.75.75,0,0,1-.58-.24A1.06,1.06,0,0,1,15.35,17.48Z"/></g></g></svg>