<svg xmlns="http://www.w3.org/2000/svg" viewBox="0 0 24 24"><defs><style>.cls-1{opacity:0.3;}</style></defs><g id="Charts_Dashboards_and_Graphs" data-name="Charts, Dashboards and Graphs"><g id="gra001-010"><g id="gra006"><path d="M13,6.09a6,6,0,0,1,4.62,8l2.47,1.43A1,1,0,0,0,21.54,15,9.71,9.71,0,0,0,22,12a10,10,0,0,0-7.79-9.75,1,1,0,0,0-1.21,1Z"/><path class="cls-1" d="M19.08,17.25a1,1,0,0,1,.25,1.54,10,10,0,0,1-14.66,0,1,1,0,0,1,.25-1.54l2.46-1.43a6,6,0,0,0,9.24,0ZM6.38,14.09a6,6,0,0,1,4.62-8V3.23a1,1,0,0,0-1.21-1A10,10,0,0,0,2,12a9.71,9.71,0,0,0,.46,3,1,1,0,0,0,1.45.55Z"/></g></g></g></svg>