<svg xmlns="http://www.w3.org/2000/svg" viewBox="0 0 24 24"><defs><style>.cls-1{opacity:0.3;}</style></defs><g id="Charts_Dashboards_and_Graphs" data-name="Charts, Dashboards and Graphs"><g id="gra001-010"><g id="gra010"><path d="M13,11V3.07a1,1,0,0,1,1.12-1,9,9,0,0,1,7.81,7.81,1,1,0,0,1-1,1.12Z"/><path class="cls-1" d="M11,13.82V5.07a1,1,0,0,0-1.13-1A9,9,0,0,0,2,13.24,9.12,9.12,0,0,0,11.27,22,9,9,0,0,0,16,20.46a1,1,0,0,0,.13-1.53Z"/><path class="cls-1" d="M21.93,14.12a8.87,8.87,0,0,1-1.8,4.37,1,1,0,0,1-1.5.09L13,13h7.93A1,1,0,0,1,21.93,14.12Z"/></g></g></g></svg>